<svg width="171" height="48" viewBox="0 0 171 48" fill="none" xmlns="http://www.w3.org/2000/svg">
<g clip-path="url(#clip0_3714_8918)">
<path d="M0 0H171V48H0V0Z" fill="#7717FF"/>
<g opacity="0.26">
<rect width="171" height="48" fill="#844CF6"/>
<path d="M223.735 115.475L218.523 99.7363L219.624 96.3135L217.629 93.183L218.867 89.7602L217.13 82.5017L218.867 76.688L217.818 73.4543L223.666 39.7591L222.445 29.5077L217.491 16.4355L205.159 7.52579L196.421 3.44934L191.33 3.84494L188.801 3.07093L189.885 1.67771L189.73 -0.317521L191.055 -1.95154L191.106 -6.4064L195.303 -8.28123L192.19 -14.9721L194.048 -19.9602L194.202 -24.2775L202.544 -28.8183L210.749 -36.352L194.873 -42.4581L192.93 -48.203L187.339 -60.5012L178.619 -68.1725L169.159 -71.0105L156.637 -73.0229L147.108 -69.8925L135.119 -66.2461L122.46 -55.4443L119.708 -48.2202L119.226 -34.804L122.512 -12.5641L126.949 -1.95154L135.119 5.80577L120.465 9.62423L115.15 12.5483L104.176 14.9907L92.4973 23.0404L78.7887 30.6429C78.7887 30.6429 60.1436 21.5612 60.1436 21.5096C60.1436 21.458 60.436 15.2315 60.436 15.2315L62.2937 12.2387L60.9348 7.09579L62.9817 1.78091L63.7213 -11.3601L58.8192 -19.857C58.7332 -19.943 58.6644 -20.0634 58.5784 -20.1494C58.5096 -20.2698 58.3892 -20.459 58.3204 -20.6482C58.0624 -20.9062 57.7012 -21.0782 57.512 -21.405C57.3228 -21.7318 57.2024 -21.9726 57.0132 -22.2822C56.3252 -23.3486 55.3792 -24.1055 54.8287 -25.2923C54.6395 -25.7911 53.8827 -25.9803 53.8311 -26.3587C53.6591 -27.8551 55.018 -28.9559 55.4652 -30.4179L54.4503 -33.4108L50.0815 -31.4672H43.9754C43.9754 -31.4672 39.1593 -22.3338 39.1593 -22.0242C39.1593 -21.7146 35.1345 -13.1317 35.1345 -13.1317L27.6352 -10.2421L28.5812 -3.79196L23.3179 1.0757L19.0522 11.0174L22.5783 21.8536L32.4168 23.4016L38.6777 29.2153L36.5965 46.6564V69.9111L39.5721 92.7186L52.5411 100.166L66.5421 92.7186L89.04 87.3521L97.8294 78.7004L98.569 81.0912L106.171 109.558L111.693 116.111L121.669 141.292L132.247 159.628L143.427 158.578L153.111 158.424L169.572 155.293L196.989 151.715L213.983 140.312L220.914 141.653L232.507 128.444L223.77 115.475H223.735Z" fill="#1F0B47"/>
<path d="M66.4908 92.7011L68.4344 89.7255L59.7827 77.5133L64.1 50.9734L81.283 62.7211L97.3309 71.8373L106.619 74.7785L112.157 78.8894L127.964 78.4077L156.104 73.5745L146.954 54.4134L131.061 42.8376L124.163 45.9853L110.592 42.8376L88.8339 36.2328L78.7546 30.6599L92.4632 23.0574L104.142 15.0077L115.116 12.5824L120.431 9.65838L135.085 5.82273L138.319 7.47395L134.587 20.6493L138.99 35.2523L141.742 36.9724L163.122 28.9226L166.252 22.4382L175.128 15.9537L183.538 14.3196L188.32 11.7052L188.011 5.82273L188.802 3.08789L191.313 3.8619L196.404 3.46629L205.159 7.54275L217.492 16.4525L222.445 29.5247L223.667 39.7588L217.819 73.4541L218.868 76.6877L217.131 82.5014L218.868 89.7427L217.629 93.1828L219.607 96.3132L218.524 99.736L223.735 115.474L232.473 128.443L220.88 141.653L205.968 147.845L196.955 151.715L169.537 155.293L153.077 158.423L143.376 158.578L132.213 159.61L121.256 141.068L111.641 116.111L106.137 109.54L97.7781 78.7001L88.9887 87.3347L66.4908 92.7011Z" fill="#EEE2FF"/>
<path d="M131.059 42.8381L135.703 38.9164L141.74 36.9728L163.12 28.9231L166.251 22.4386L175.126 15.9541L183.537 14.3201L188.319 11.7057L200.823 10.5876L186.134 24.2962L181.748 49.4946L201.356 50.6126L163.791 55.9791L202.612 62.154L216.252 52.6938L202.096 65.508L174.232 74.5209L167.145 79.7498L157.909 82.7943L154.331 78.0986L152.714 74.1253L155.982 73.3169L146.952 54.4139L131.059 42.8381Z" fill="#E5E5E5"/>
<path d="M0.440566 2.61129L4.05033 7.50172L5.59524 13.6531L12.2305 35.5134L18.4965 39.0609L24.3871 48.3411L25.4679 56.8408L27.7643 61.7831L28.0627 74.334L15.3434 58.7805L-9.51445 52.757L-11.9116 72.2503L-14.8115 34.4145L-23.5103 72.7489L-14.9618 86.9778L-26.8235 72.0148L-33.9961 43.621L-38.7506 36.2079L-41.1849 26.7922L-36.2655 23.529L-32.195 22.1753L-31.6019 25.4892L-12.1491 17.7138L0.440566 2.61129Z" fill="#E5E5E5"/>
<path d="M2.31959 28.9645L5.20525 34.3143L5.86917 40.6219L9.36222 63.1983L15.0667 67.5923L19.5928 77.609L19.4668 86.1763L21.0448 91.3926L19.5741 103.861L9.17003 86.672L-14.5928 77.2104L-19.7092 96.1724L-17.256 58.3051L-31.2627 95.034L-24.8015 110.324L-34.4396 93.8409L-37.5452 64.7203L-41.2093 56.7119L-42.2944 47.0473L-36.9647 44.5089L-32.7443 43.7415L-32.6234 47.1058L-12.27 42.1452L2.31959 28.9645Z" fill="#A379F7"/>
<path opacity="0.25" d="M194.873 -42.458L192.929 -48.2029L187.339 -60.5011L178.619 -68.1724L169.159 -71.0104L162.898 -72.0081L165.271 -65.7816L161.315 -70.632L153.558 -72.0081L147.091 -69.8924L135.085 -66.246L137.699 -64.3883L148.948 -60.8107L151.7 -57.0094L146.557 -59.9851L136.358 -62.4447L126.227 -44.3329L129.512 -39.0352L144.27 -28.1646L164.962 -27.2014L146.11 -22.6262L130.286 -23.1766L124.593 -24.7418L134.087 -19.0485L144.184 -18.3261L132.488 -17.1393L125.59 -18.6357L125.728 -11.8588L127.362 -3.65431L130.544 1.48857L135.085 5.80582L138.319 7.43985L140.709 9.67588H151.821L159.492 7.14744L163.672 -3.2071L161.504 -10.2936L152.492 -17.7413L178.12 -18.6357L189.524 -22.1446L192.207 -14.9893L194.065 -19.9773L194.219 -24.2946L202.561 -28.8355L210.766 -36.352L194.89 -42.458H194.873ZM147.934 -2.67389L142.601 0.0437472L138.422 -2.38149L133.984 -9.72599L136.857 -10.5516L148.26 -7.79956L147.916 -2.69109L147.934 -2.67389Z" fill="#9D6FFF"/>
<path d="M115.717 28.5445C115.717 28.7853 120.826 15.2143 120.826 15.2143L135.085 5.823L138.318 7.45702L134.586 20.6496L138.989 35.2526L141.741 36.9726L135.704 38.9163L131.06 42.8379L124.163 45.9856L110.609 42.8379L109.474 29.5765L117.076 14.2339L111.555 30.3849L113.24 39.5699" fill="#A379F7"/>
<path d="M150.134 -9.19227L136.426 -12.2539L130.715 -10.9983L137.355 0.0442696C137.355 0.0442696 142.205 1.64389 142.24 1.48909C142.274 1.33429 150.513 -2.08856 150.513 -2.08856L150.134 -9.20946V-9.19227ZM147.933 -2.67337L142.601 0.0442696L138.421 -2.38096L133.983 -9.72547L136.856 -10.5511L148.26 -7.79904L147.916 -2.69057L147.933 -2.67337Z" fill="#A47AF7"/>
<path d="M32.3657 23.4189L77.3616 41.29L109.457 48.4453L124.163 45.9857L131.061 42.838L146.954 54.4138L152.475 65.9724L132.66 73.3169L109.457 67.5204L95.8518 66.3336L81.2832 62.7215L64.1002 50.9737L38.6266 29.2154L32.3657 23.4189Z" fill="#2E126B"/>
<path d="M32.3657 23.4189L52.8512 24.7949L60.1269 21.5269L78.7548 30.6602L88.8341 36.2331L110.592 42.838L124.163 45.9856L93.6502 54.9641L105.828 49.5977L70.0686 42.666L32.3657 23.4189Z" fill="#A47AF7"/>
<path d="M32.3651 23.4192L29.9398 10.5878L24.023 11.7058L20.9441 17.0035L19.0005 11.035L23.5 -0.476721H36.0803L25.1238 -1.59236L28.5294 -4.7572L27.6006 -10.2245L35.0999 -13.0969L45.0245 -8.17766L54.3126 3.0885L60.1263 21.5272L61.3475 27.1344L32.3651 23.4192Z" fill="#A379F7"/>
<path d="M54.3123 3.08827L45.0241 -8.17789L35.0996 -13.0972L39.1245 -21.9897L40.3973 -25.6533L43.9405 -31.4326H50.0466L58.7327 -19.9601L63.7036 -11.3427L62.964 1.79825L60.9172 7.11313L62.276 12.256L60.4184 15.2488L60.126 21.5269L54.3123 3.08827Z" fill="#391783"/>
<path d="M37.8847 35.3901V47.9291L42.6836 73.3167L41.7892 91.0673L52.4705 100.149L39.5187 92.7013L36.5259 69.911V46.6563L37.8847 35.3901Z" fill="#A379F7"/>
<path d="M175.127 15.9539L159.183 12.7202L151.064 17.8287L153.472 25.586L143.479 36.3189L163.122 28.9228L166.252 22.4384L175.127 15.9539Z" fill="black"/>
<path d="M142.499 31.5548L139.661 25.6035L134.586 20.6498L134.896 19.6006L141.742 24.5199L142.499 31.5548Z" fill="black"/>
<path d="M153.472 25.586L161.676 16.7451L154.142 20.5463L158.219 16.3667L166.354 14.1822L159.182 12.7202L151.063 17.8287L153.472 25.586Z" fill="#A47AF7"/>
</g>
</g>
<defs>
<clipPath id="clip0_3714_8918">
<path d="M0 0H171V48H0V0Z" fill="white"/>
</clipPath>
</defs>
</svg>
