<svg xmlns="http://www.w3.org/2000/svg" viewBox="0 0 372.25 57.63"><defs><style>.cls-1{fill:#0595ce;fill-rule:evenodd;}</style></defs><g id="Layer_2" data-name="Layer 2"><g id="Layer_1-2" data-name="Layer 1"><path d="M82,44.6H75.61V10.69H82V22.44a2.46,2.46,0,0,1,.74-1.78,2.37,2.37,0,0,1,1.72-.74H98a2.36,2.36,0,0,1,1.75.74,2.44,2.44,0,0,1,.71,1.73V42.13a2.41,2.41,0,0,1-.71,1.75A2.38,2.38,0,0,1,98,44.6H84.44a2.39,2.39,0,0,1-1.72-.72A2.36,2.36,0,0,1,82,42.13Zm0-6.17H94.12V26.09H84.44A2.53,2.53,0,0,0,82,28.56Z"/><path d="M106.41,22.39a2.44,2.44,0,0,1,2.47-2.47h20a2.3,2.3,0,0,1,1.7.72,2.38,2.38,0,0,1,.72,1.75V32.9a2.4,2.4,0,0,1-.72,1.73,2.34,2.34,0,0,1-1.75.74h-16v3.06h18.51V44.6h-22.4a2.44,2.44,0,0,1-2.47-2.47Zm6.36,3.7V29.2h12.14V26.09Z"/><path d="M144.7,10.69v9.23H149v6.17H144.7V38.43H149V44.6h-8.29a2.39,2.39,0,0,1-1.72-.72,2.27,2.27,0,0,1-.75-1.7V26.09h-3.05V19.92h3.05V10.69Z"/><path d="M156.45,44.6A2.46,2.46,0,0,1,154,42.13V36.9h6.37v1.53h12.14V35.37h-16a2.34,2.34,0,0,1-1.75-.74A2.4,2.4,0,0,1,154,32.9V22.39a2.41,2.41,0,0,1,.72-1.73,2.34,2.34,0,0,1,1.75-.74h19.94a2.36,2.36,0,0,1,1.75.74,2.44,2.44,0,0,1,.71,1.73v5.28h-6.36V26.09H160.35V29.2h16a2.41,2.41,0,0,1,1.75.71,2.37,2.37,0,0,1,.71,1.71V42.18a2.34,2.34,0,0,1-.71,1.7,2.38,2.38,0,0,1-1.75.72Z"/><path d="M209.65,42.13a2.46,2.46,0,0,1-2.47,2.47H187.24a2.44,2.44,0,0,1-2.46-2.47V22.44a2.47,2.47,0,0,1,.71-1.78,2.36,2.36,0,0,1,1.75-.74h19.94a2.34,2.34,0,0,1,1.75.74,2.41,2.41,0,0,1,.72,1.73Zm-6.37-16H191.14V38.43h12.14Z"/><path d="M221.94,10.69V38.43h2.21V44.6H218a2.35,2.35,0,0,1-1.75-.72,2.31,2.31,0,0,1-.72-1.7V10.69Z"/><path d="M246.51,19.92h6.37V44.6h-6.37V42.13a2.32,2.32,0,0,1-.74,1.75,2.46,2.46,0,0,1-1.78.72H232.55a2.44,2.44,0,0,1-2.47-2.47V19.92h6.36V38.43H244a2.46,2.46,0,0,0,1.78-.72,2.31,2.31,0,0,0,.74-1.75Z"/><path d="M266.3,10.69v9.23h4.34v6.17H266.3V38.43h4.34V44.6h-8.29a2.41,2.41,0,0,1-1.73-.72,2.3,2.3,0,0,1-.74-1.7V26.09h-3.06V19.92h3.06V10.69Z"/><path d="M275.58,11.29a.52.52,0,0,1,.59-.6h5.18a.53.53,0,0,1,.59.6v5a.52.52,0,0,1-.59.59h-5.18a.52.52,0,0,1-.59-.59Zm6.36,33.31h-6.36V19.92h6.36Z"/><path d="M312.74,42.13a2.46,2.46,0,0,1-2.47,2.47H290.34a2.44,2.44,0,0,1-2.47-2.47V22.44a2.51,2.51,0,0,1,.71-1.78,2.36,2.36,0,0,1,1.76-.74h19.93a2.34,2.34,0,0,1,1.75.74,2.41,2.41,0,0,1,.72,1.73Zm-6.37-16H294.23V38.43h12.14Z"/><path d="M325,44.6h-6.37V19.92H325v2.47a2.53,2.53,0,0,1,2.46-2.47H339a2.38,2.38,0,0,1,1.76.74,2.44,2.44,0,0,1,.71,1.73V44.6h-6.37V26.09h-7.6a2.39,2.39,0,0,0-1.72.72,2.31,2.31,0,0,0-.74,1.75Z"/><path d="M349.85,44.6a2.46,2.46,0,0,1-2.47-2.47V36.9h6.37v1.53h12.14V35.37h-16a2.34,2.34,0,0,1-1.75-.74,2.4,2.4,0,0,1-.72-1.73V22.39a2.41,2.41,0,0,1,.72-1.73,2.34,2.34,0,0,1,1.75-.74h19.94a2.36,2.36,0,0,1,1.75.74,2.44,2.44,0,0,1,.71,1.73v5.28h-6.36V26.09H353.75V29.2h16a2.41,2.41,0,0,1,1.75.71,2.37,2.37,0,0,1,.71,1.71V42.18a2.34,2.34,0,0,1-.71,1.7,2.38,2.38,0,0,1-1.75.72Z"/><g id="Layer_1-3" data-name="Layer_1"><path class="cls-1" d="M28.8,0a28.83,28.83,0,0,1,27.3,19.6A57.47,57.47,0,0,0,35,16.07l.1,3.43a58.05,58.05,0,0,1,22,3.9,29.49,29.49,0,0,1,.51,5.43A28.78,28.78,0,0,1,23.13,57.06,57.42,57.42,0,0,0,36.75,40.6l-3-1.65A57.84,57.84,0,0,1,19.37,56,28.79,28.79,0,0,1,7.19,9.78a57.61,57.61,0,0,0,7.45,20L17.58,28A57.61,57.61,0,0,1,10,7,28.7,28.7,0,0,1,28.81,0Z"/></g></g></g></svg>