<?xml version="1.0" encoding="utf-8"?>
<!-- Generator: Adobe Illustrator 23.0.1, SVG Export Plug-In . SVG Version: 6.00 Build 0)  -->
<svg version="1.1" xmlns="http://www.w3.org/2000/svg" xmlns:xlink="http://www.w3.org/1999/xlink" x="0px" y="0px"
	 viewBox="0 0 748.07 496.08" style="enable-background:new 0 0 748.07 496.08;" xml:space="preserve">
<style type="text/css">
	.st0{fill:#23111C;}
	.st1{fill:#FFFFFF;}
	.st2{fill:#B1CB43;}
	.st3{fill:#E13A5C;}
	.st4{fill:#333333;}
</style>
<g id="dark_x5F_logo">
	<rect id="background" x="-768.07" class="st0" width="748.07" height="496.08"/>
	<g id="triple_x5F_cherry_x5F_white">
		<path class="st1" d="M-589.61,290.08v42.57h-6.36v-42.57h-11.4v-6.33h29.15v6.33H-589.61z"/>
		<path class="st1" d="M-559.99,317h-5.78v15.65h-6.33v-48.9h13.87c3.93,0.53,7.25,2.15,9.96,4.86c3.24,3.26,4.86,7.17,4.86,11.74
			c0,4.6-1.62,8.54-4.86,11.8c-2.24,2.24-3.95,3.5-5.13,3.79l10.85,16.72h-7.67L-559.99,317z M-565.77,290.11v20.54h5.78
			c2.81,0,5.22-1,7.23-3.01c2.01-2.01,3.01-4.44,3.01-7.29c0-2.83-1-5.25-3.01-7.24c-2.01-2-4.42-3-7.23-3H-565.77z"/>
		<path class="st1" d="M-529.37,283.75v48.9h-6.33v-48.9H-529.37z"/>
		<path class="st1" d="M-513.24,317v15.65h-6.33v-48.9h13.87c3.93,0.53,7.25,2.15,9.96,4.86c3.24,3.26,4.86,7.17,4.86,11.74
			c0,4.6-1.62,8.53-4.86,11.78c-3.24,3.25-7.15,4.88-11.73,4.88H-513.24z M-513.24,290.11v20.54h5.78c2.81,0,5.22-1,7.23-3.01
			c2.01-2.01,3.01-4.44,3.01-7.29c0-2.83-1-5.25-3.01-7.24c-2.01-2-4.42-3-7.23-3H-513.24z"/>
		<path class="st1" d="M-484.57,332.65v-48.9h6.33v42.54h17.48v6.36H-484.57z"/>
		<path class="st1" d="M-427.09,283.75v6.33h-20.02v14.94h20.02v6.33h-20.02v14.94h20.02v6.36h-26.34v-48.9H-427.09z"/>
		<path class="st1" d="M-358.02,324.86l2.08,1.86c-4.77,4.34-10.38,6.51-16.84,6.51c-6.93,0-12.83-2.44-17.71-7.32
			c-4.88-4.88-7.32-10.78-7.32-17.71c0-6.91,2.44-12.8,7.32-17.69c4.88-4.89,10.78-7.33,17.71-7.33c6.46,0,12.07,2.17,16.84,6.51
			l-2.08,1.89c-4.2-3.73-9.12-5.59-14.76-5.59c-6.13,0-11.37,2.17-15.71,6.51c-4.34,4.34-6.51,9.58-6.51,15.71
			c0,6.15,2.17,11.4,6.51,15.74c4.34,4.34,9.58,6.51,15.71,6.51C-367.14,330.45-362.22,328.59-358.02,324.86z"/>
		<path class="st1" d="M-345.55,310.74v21.91h-2.75v-48.9h2.75v24.23h20.48v-24.23h2.75v48.9h-2.75v-21.91H-345.55z"/>
		<path class="st1" d="M-288.71,283.75v2.75h-21.7v20.32h21.7v2.75h-21.7v20.32h21.7v2.75h-24.45v-48.9H-288.71z"/>
		<path class="st1" d="M-268.42,315.66c-0.26,0.02-0.54,0.03-0.83,0.03h-8.31v16.96h-2.75v-48.9h12.83c3.73,0.51,6.9,2.07,9.5,4.68
			c3.12,3.12,4.68,6.88,4.68,11.28c0,4.42-1.56,8.19-4.68,11.31c-2.16,2.16-4.64,3.58-7.43,4.25l11.28,17.39h-3.39L-268.42,315.66z
			 M-277.56,286.54v26.37h8.31c3.63,0,6.73-1.29,9.31-3.87s3.87-5.69,3.87-9.34c0-3.65-1.29-6.75-3.87-9.32s-5.68-3.85-9.31-3.85
			H-277.56z"/>
		<path class="st1" d="M-235.14,315.66c-0.26,0.02-0.54,0.03-0.83,0.03h-8.31v16.96h-2.75v-48.9h12.83c3.73,0.51,6.9,2.07,9.5,4.68
			c3.12,3.12,4.68,6.88,4.68,11.28c0,4.42-1.56,8.19-4.68,11.31c-2.16,2.16-4.64,3.58-7.43,4.25l11.28,17.39h-3.39L-235.14,315.66z
			 M-244.28,286.54v26.37h8.31c3.63,0,6.73-1.29,9.31-3.87s3.87-5.69,3.87-9.34c0-3.65-1.29-6.75-3.87-9.32s-5.68-3.85-9.31-3.85
			H-244.28z"/>
		<path class="st1" d="M-200.3,312.88l-16.81-29.12h3.15l15.04,26.07l15.07-26.07h3.15l-16.84,29.12v19.77h-2.75V312.88z"/>
	</g>
	<g id="icon">
		<g>
			<path class="st2" d="M-384.77,169.77h-15.8l7.43-19.34h-17.9c-8.14,0-14.75-6.6-14.75-14.75v0h54.11L-384.77,169.77z"/>
		</g>
		<path class="st3" d="M-394.04,176.48c-2.92,0-9.18,0-9.18,0l-5.67,14.75c0,0,11.86,0,14.85,0c13.79,0,25,11.21,25,25
			s-11.21,25-25,25c-13.78,0-25-11.21-25-25c0-1.32,0.12-2.6,0.32-3.86h-14.87c-0.13,1.27-0.19,2.56-0.19,3.86
			c0,21.92,17.83,39.75,39.74,39.75c21.92,0,39.75-17.83,39.75-39.75S-372.12,176.48-394.04,176.48z"/>
	</g>
</g>
<g id="white_x5F_logo">
	<g id="triple_x5F_cherry_x5F_dark">
		<g>
			<path class="st4" d="M178.46,290.08v42.57h-6.36v-42.57h-11.4v-6.33h29.16v6.33H178.46z"/>
			<path class="st4" d="M208.08,317h-5.78v15.65h-6.33v-48.9h13.87c3.93,0.53,7.25,2.15,9.96,4.86c3.24,3.26,4.86,7.17,4.86,11.74
				c0,4.6-1.62,8.54-4.86,11.8c-2.24,2.24-3.95,3.5-5.13,3.79l10.85,16.72h-7.67L208.08,317z M202.3,290.11v20.54h5.78
				c2.81,0,5.22-1,7.23-3.01c2.01-2.01,3.01-4.44,3.01-7.29c0-2.83-1-5.25-3.01-7.24c-2.01-2-4.42-3-7.23-3H202.3z"/>
			<path class="st4" d="M238.7,283.75v48.9h-6.33v-48.9H238.7z"/>
			<path class="st4" d="M254.84,317v15.65h-6.33v-48.9h13.87c3.93,0.53,7.25,2.15,9.96,4.86c3.24,3.26,4.86,7.17,4.86,11.74
				c0,4.6-1.62,8.53-4.86,11.78c-3.24,3.25-7.15,4.88-11.73,4.88H254.84z M254.84,290.11v20.54h5.78c2.81,0,5.22-1,7.23-3.01
				s3.01-4.44,3.01-7.29c0-2.83-1-5.25-3.01-7.24c-2.01-2-4.42-3-7.23-3H254.84z"/>
			<path class="st4" d="M283.5,332.65v-48.9h6.33v42.54h17.48v6.36H283.5z"/>
			<path class="st4" d="M340.98,283.75v6.33h-20.02v14.94h20.02v6.33h-20.02v14.94h20.02v6.36h-26.34v-48.9H340.98z"/>
			<path class="st4" d="M410.05,324.86l2.08,1.86c-4.77,4.34-10.38,6.51-16.84,6.51c-6.93,0-12.83-2.44-17.71-7.32
				s-7.32-10.78-7.32-17.71c0-6.91,2.44-12.8,7.32-17.69s10.78-7.33,17.71-7.33c6.46,0,12.07,2.17,16.84,6.51l-2.08,1.89
				c-4.2-3.73-9.12-5.59-14.76-5.59c-6.13,0-11.37,2.17-15.71,6.51s-6.51,9.58-6.51,15.71c0,6.15,2.17,11.4,6.51,15.74
				c4.34,4.34,9.57,6.51,15.71,6.51C400.93,330.45,405.85,328.59,410.05,324.86z"/>
			<path class="st4" d="M422.52,310.74v21.91h-2.75v-48.9h2.75v24.23h20.48v-24.23h2.75v48.9h-2.75v-21.91H422.52z"/>
			<path class="st4" d="M479.36,283.75v2.75h-21.7v20.32h21.7v2.75h-21.7v20.32h21.7v2.75h-24.45v-48.9H479.36z"/>
			<path class="st4" d="M499.65,315.66c-0.26,0.02-0.54,0.03-0.82,0.03h-8.31v16.96h-2.75v-48.9h12.83c3.73,0.51,6.9,2.07,9.51,4.68
				c3.12,3.12,4.68,6.88,4.68,11.28c0,4.42-1.56,8.19-4.68,11.31c-2.16,2.16-4.64,3.58-7.43,4.25l11.28,17.39h-3.39L499.65,315.66z
				 M490.52,286.54v26.37h8.31c3.63,0,6.73-1.29,9.3-3.87c2.58-2.58,3.87-5.69,3.87-9.34c0-3.65-1.29-6.75-3.87-9.32
				c-2.58-2.57-5.68-3.85-9.3-3.85H490.52z"/>
			<path class="st4" d="M532.93,315.66c-0.27,0.02-0.54,0.03-0.83,0.03h-8.31v16.96h-2.75v-48.9h12.84c3.73,0.51,6.9,2.07,9.5,4.68
				c3.12,3.12,4.68,6.88,4.68,11.28c0,4.42-1.56,8.19-4.68,11.31c-2.16,2.16-4.63,3.58-7.43,4.25l11.28,17.39h-3.39L532.93,315.66z
				 M523.79,286.54v26.37h8.31c3.63,0,6.73-1.29,9.31-3.87c2.58-2.58,3.87-5.69,3.87-9.34c0-3.65-1.29-6.75-3.87-9.32
				c-2.58-2.57-5.68-3.85-9.31-3.85H523.79z"/>
			<path class="st4" d="M567.77,312.88l-16.81-29.12h3.15l15.04,26.07l15.07-26.07h3.15l-16.84,29.12v19.77h-2.75V312.88z"/>
		</g>
	</g>
	<g id="icon_1_">
		<g>
			<path class="st2" d="M383.31,169.77h-15.8l7.43-19.34h-17.9c-8.14,0-14.75-6.6-14.75-14.75v0h54.11L383.31,169.77z"/>
		</g>
		<path class="st3" d="M374.03,176.48c-2.92,0-9.18,0-9.18,0l-5.67,14.75c0,0,11.86,0,14.85,0c13.79,0,25,11.21,25,25
			s-11.21,25-25,25c-13.78,0-25-11.21-25-25c0-1.32,0.12-2.6,0.32-3.86h-14.87c-0.13,1.27-0.19,2.56-0.19,3.86
			c0,21.92,17.83,39.75,39.74,39.75c21.92,0,39.75-17.83,39.75-39.75S395.95,176.48,374.03,176.48z"/>
	</g>
</g>
</svg>
