<svg id="Capa_1" data-name="Capa 1" xmlns="http://www.w3.org/2000/svg" viewBox="0 0 3000 3000"><defs><style>.cls-1{fill:#0074ff;}</style></defs><g id="Capa_2" data-name="Capa 2"><g id="Capa_1-2" data-name="Capa 1-2"><path class="cls-1" d="M1438.43,1636.34a68,68,0,0,0,68,68h68.17V1663.9h-68.17v-37.76h105.76v116H1506.43a105.93,105.93,0,0,1,0-211.69h105.76v37.76H1506.43A68.16,68.16,0,0,0,1438.43,1636.34Z"/><path class="cls-1" d="M1870.83,1742.1H1829.4L1810,1704.17l-47.45-90.56-46.12,90.56-19.38,37.93H1655.3l19.21-37.93,88.06-173.76,88.55,173.76Z"/><path class="cls-1" d="M2125.46,1530.41V1742.1h-37.93V1607.43l-36.92,28.41-30.91,23.89-30.91-23.89-37.09-28.41V1742.1h-37.93V1530.41l37.93,29.24,68,52.29,67.83-52.29Z"/><path class="cls-1" d="M2176.09,1741.93V1530.58h37.59v211.35Z"/><path class="cls-1" d="M2481,1530.41V1742.1l-38.43-29.91-136-104.76V1741.1h-37.76V1531.24l37.76,29.08,136,104.92V1530.41Z"/><path class="cls-1" d="M2572.9,1636.34a68,68,0,0,0,68,68h68.17V1663.9H2640.9v-37.76h105.93v116H2640.9a105.93,105.93,0,0,1,0-211.69h105.93v37.76H2640.9A68.16,68.16,0,0,0,2572.9,1636.34Z"/><path class="cls-1" d="M1400.67,1839.84h16.71v86.38h25.9v14.37h-41.77Z"/><path class="cls-1" d="M1492.57,1839.84h15.7v100.25h-15.7Z"/><path class="cls-1" d="M1586.63,1922h0l11.86-82.2H1613l-15.54,100.25h-23.22l-15.54-100.25h16.71Z"/><path class="cls-1" d="M1679,1882.28h21.72V1896H1679v29.57h27.23v14.37h-42.44V1839.67h43.11V1854H1679Z"/><path class="cls-1" d="M1876.51,1940.59h-16.7l-2.68-18.38h-18.71l-2.84,18.38H1821l16.71-100.25h23.06Zm-36.09-31.91h15.21l-7.52-50.13h0Z"/><path class="cls-1" d="M1916.78,1839.84h49v14.37H1949v86.38h-16.71v-86.38h-16.71Z"/><path class="cls-1" d="M2081.18,1839.84h15.54v100.25H2081Z"/><path class="cls-1" d="M2146.85,1839.84h48.78v14.37h-16.7v86.38h-16.71v-86.38h-16.71Z"/><path class="cls-1" d="M2267.14,1838.67c15.38,0,23.23,9.36,23.23,25.4v3.17H2275.5v-4.68c0-7.18-3-10-8-10s-7.85,2.84-7.85,10,3.17,12.7,13.53,21.89a38.75,38.75,0,0,1,16.71,31.41c0,16.71-8,25.23-23.56,25.23s-23.56-9.19-23.56-25.23v-6.18h14.87v7.18c0,7.19,3.17,9.86,8.19,9.86s8.18-2.67,8.18-9.86-3.17-12.7-13.53-21.88a38.78,38.78,0,0,1-16.71-31.42C2243.75,1848,2251.77,1838.67,2267.14,1838.67Z"/><path class="cls-1" d="M2455.44,1862.56v3.51a19.73,19.73,0,0,1-10.19,20.22h0a20,20,0,0,1,11.7,21.38v8.19a21.39,21.39,0,0,1-18.55,23.89,20.83,20.83,0,0,1-5.35,0h-24.89V1839.5h23.72C2448.43,1839.84,2455.44,1847.52,2455.44,1862.56Zm-31.58-8.85v26.73h7c6,0,9.53-2.67,9.53-10.69v-5.68c0-7.19-2.51-10.36-8-10.36Zm0,41.1v30.91h9.19c5.18,0,8.19-2.51,8.19-10V1907c0-9.35-3.17-12.19-10.36-12.19Z"/><path class="cls-1" d="M2525.45,1882.28h22.39V1896h-21.72v29.57h27.23v14.37h-43.11V1839.67h43.11V1854h-27.23Z"/><path class="cls-1" d="M2626.87,1838.67c15.37,0,23.22,9.36,23.22,25.4v3.17h-14.87v-4.68c0-7.18-2.84-10-7.85-10s-8,2.84-8,10,3.17,12.7,13.53,21.89a38.75,38.75,0,0,1,16.71,31.41c0,16.71-8,25.23-23.56,25.23s-23.56-9.19-23.56-25.23v-6.18h15v7.18c0,7.19,3,9.86,8.19,9.86s8.18-2.67,8.18-9.86-3.17-12.7-13.53-21.88a38.78,38.78,0,0,1-16.71-31.42C2603.64,1848,2611.49,1838.67,2626.87,1838.67Z"/><path class="cls-1" d="M2698.21,1839.84h48.95v14.37h-16.71v86.38h-15.53v-86.38h-16.71Z"/><polygon class="cls-1" points="1393.82 1129.92 1357.4 1058.24 1434.92 1058.24 1473.68 1133.93 1572.6 1337.1 1671.67 1133.76 1710.27 1058.24 1787.79 1058.24 1751.37 1129.92 1572.6 1480.62 1393.82 1129.92"/><rect class="cls-1" x="1818.37" y="1058.24" width="69.17" height="427.39"/><polygon class="cls-1" points="1954.87 1129.92 1918.45 1058.24 1995.97 1058.24 2034.74 1133.93 2133.65 1337.1 2232.73 1133.76 2271.32 1058.24 2348.85 1058.24 2312.42 1129.92 2133.65 1480.62 1954.87 1129.92"/><path class="cls-1" d="M2577.58,1485.63c-118,0-213.7-95.67-213.7-213.69s95.68-213.7,213.7-213.7,213.69,95.68,213.69,213.7h0C2791.18,1389.92,2695.56,1485.54,2577.58,1485.63Zm0-358.38a144.61,144.61,0,1,1,0,.16Z"/><path class="cls-1" d="M1027.42,1454.39c0,29.07,19.38,42.77,42.6,30.41a92.1,92.1,0,0,0,40.94-75.52c0-29.24-19.22-42.78-42.44-30.41A92.2,92.2,0,0,0,1027.42,1454.39Zm-1.17,239.25c0,29.08,19.21,42.78,42.44,30.41a91.74,91.74,0,0,0,41.6-75.52c0-29.24-19.22-42.77-42.44-30.41a91.74,91.74,0,0,0-41.94,75.52ZM937,1619.8c0,29.07,19.21,42.77,42.6,30.4a92,92,0,0,0,41.6-75.52c0-29.23-19.21-42.77-42.43-30.4a92.23,92.23,0,0,0-42.11,75.52Zm-93.4-70.18c0,29.07,19.21,42.77,42.44,30.41a92.24,92.24,0,0,0,41.1-75.52c0-29.24-19.38-42.77-42.61-30.41A91.76,91.76,0,0,0,843.63,1549.62Zm-1.34,239.26c0,29.24,19.22,42.77,42.44,30.41a91.9,91.9,0,0,0,42.44-75.52c0-29.24-19.21-42.77-42.61-30.41A92.06,92.06,0,0,0,842.29,1788.88Zm0,0c0,29.24,19.22,42.77,42.44,30.41a91.9,91.9,0,0,0,42.44-75.52c0-29.24-19.21-42.77-42.61-30.41A92.06,92.06,0,0,0,842.29,1788.88Zm1.34-239.26c0,29.07,19.21,42.77,42.44,30.41a92.24,92.24,0,0,0,41.1-75.52c0-29.24-19.38-42.77-42.61-30.41A91.76,91.76,0,0,0,843.63,1549.62Zm93.06,70.18c0,29.07,19.22,42.77,42.61,30.4a92,92,0,0,0,41.6-75.52c0-29.23-19.21-42.77-42.44-30.4A92.21,92.21,0,0,0,936.69,1619.8Zm89.22,73.84c0,29.08,19.22,42.78,42.44,30.41a91.71,91.71,0,0,0,41.6-75.52c0-29.24-19.21-42.77-42.43-30.41A91.75,91.75,0,0,0,1025.91,1693.64Zm1.51-239.25c0,29.07,19.38,42.77,42.6,30.41a92.1,92.1,0,0,0,40.94-75.52c0-29.24-19.22-42.78-42.44-30.41A92.2,92.2,0,0,0,1027.42,1454.39Zm0,0c0,29.07,19.38,42.77,42.6,30.41a92.1,92.1,0,0,0,40.94-75.52c0-29.24-19.22-42.78-42.44-30.41A92.2,92.2,0,0,0,1027.42,1454.39Zm-1.17,239.25c0,29.08,19.21,42.78,42.44,30.41a91.74,91.74,0,0,0,41.6-75.52c0-29.24-19.22-42.77-42.44-30.41a91.74,91.74,0,0,0-41.94,75.52ZM937,1619.8c0,29.07,19.21,42.77,42.6,30.4a92,92,0,0,0,41.6-75.52c0-29.23-19.21-42.77-42.43-30.4a92.23,92.23,0,0,0-42.11,75.52Zm-93.4-70.18c0,29.07,19.21,42.77,42.44,30.41a92.24,92.24,0,0,0,41.1-75.52c0-29.24-19.38-42.77-42.61-30.41A91.76,91.76,0,0,0,843.63,1549.62Zm-1.34,239.26c0,29.24,19.22,42.77,42.44,30.41a91.9,91.9,0,0,0,42.44-75.52c0-29.24-19.21-42.77-42.61-30.41A92.06,92.06,0,0,0,842.29,1788.88ZM597,1516.21a106.63,106.63,0,0,0,43.61,79c23.72,15,42.77,3.84,42.44-25.07a106.42,106.42,0,0,0-43.78-79.69C615.57,1475.94,596.52,1487.13,597,1516.21ZM503,1571.68a107.24,107.24,0,0,0,43.77,79.86c23.73,15,42.77,3.84,42.44-25.23a107.27,107.27,0,0,0-43.78-79.69C521.67,1531.58,502.62,1542.77,503,1571.68Zm-93.74,55.63A105.94,105.94,0,0,0,453,1707c23.72,15.21,42.6,3.84,42.27-25.06a106.3,106.3,0,0,0-43.61-79.7C427.6,1587.22,409.22,1598.41,409.22,1627.31Zm0,0A105.94,105.94,0,0,0,453,1707c23.72,15.21,42.6,3.84,42.27-25.06a106.3,106.3,0,0,0-43.61-79.7C427.6,1587.22,409.22,1598.41,409.22,1627.31Zm93.9-55.63a107.29,107.29,0,0,0,43.78,79.86c23.72,15,42.77,3.84,42.44-25.23a107.27,107.27,0,0,0-43.78-79.69c-23.89-15-42.94-3.85-42.6,25.06Zm94.07-55.47a106.58,106.58,0,0,0,43.44,79c23.72,15,42.77,3.84,42.44-25.07a106.42,106.42,0,0,0-43.78-79.69c-23.72-14.54-42.77-3.35-42.27,25.73Zm245.1,272.67c0,29.24,19.22,42.77,42.44,30.41a91.9,91.9,0,0,0,42.44-75.52c0-29.24-19.21-42.77-42.61-30.41A92.06,92.06,0,0,0,842.29,1788.88Zm85.55-284c0-29.24-19.38-42.78-42.61-30.41a91.71,91.71,0,0,0-41.6,75.18c0,29.07,19.21,42.77,42.44,30.41a92.24,92.24,0,0,0,41.1-75.52Zm8.85,115.28c0,29.07,19.22,42.77,42.61,30.41a92,92,0,0,0,41.6-75.52c0-29.24-19.21-42.77-42.44-30.41a92.24,92.24,0,0,0-41.77,75.19Zm89.22,73.85c0,29.07,19.22,42.77,42.44,30.41a91.71,91.71,0,0,0,41.6-75.52c0-29.24-19.21-42.77-42.43-30.41a91.73,91.73,0,0,0-41.61,75.18Zm85.38-284c0-29.23-19.21-42.77-42.44-30.4a92.19,92.19,0,0,0-41.43,74.85c0,29.07,19.38,42.77,42.6,30.41a92.1,92.1,0,0,0,40.94-75.52ZM409.22,1627.31A105.94,105.94,0,0,0,453,1707c23.72,15.21,42.6,3.84,42.27-25.06a106.3,106.3,0,0,0-43.61-79.7C427.6,1587.22,409.22,1598.41,409.22,1627.31Zm93.9-55.63a107.29,107.29,0,0,0,43.78,79.86c23.72,15,42.77,3.84,42.44-25.23a107.27,107.27,0,0,0-43.78-79.69c-23.89-15-42.94-3.85-42.6,25.06Zm94.07-55.47a106.58,106.58,0,0,0,43.44,79c23.72,15,42.77,3.84,42.44-25.07a106.42,106.42,0,0,0-43.78-79.69c-23.72-14.54-42.77-3.35-42.27,25.73Zm245.1,272.67c0,29.24,19.22,42.77,42.44,30.41a91.9,91.9,0,0,0,42.44-75.52c0-29.24-19.21-42.77-42.61-30.41A92.06,92.06,0,0,0,842.29,1788.88Zm85.55-284c0-29.24-19.38-42.78-42.61-30.41a91.71,91.71,0,0,0-41.6,75.18c0,29.07,19.21,42.77,42.44,30.41a92.24,92.24,0,0,0,41.1-75.52Zm8.85,115.28c0,29.07,19.22,42.77,42.61,30.41a92,92,0,0,0,41.6-75.52c0-29.24-19.21-42.77-42.44-30.41a92.24,92.24,0,0,0-41.77,75.19Zm89.22,73.85c0,29.07,19.22,42.77,42.44,30.41a91.71,91.71,0,0,0,41.6-75.52c0-29.24-19.21-42.77-42.43-30.41a91.73,91.73,0,0,0-41.61,75.18Zm85.38-284c0-29.23-19.21-42.77-42.44-30.4a92.19,92.19,0,0,0-41.43,74.85c0,29.07,19.38,42.77,42.6,30.41a92.1,92.1,0,0,0,40.94-75.52Zm-83.54,45.12c0,29.07,19.38,42.77,42.61,30.4a92,92,0,0,0,40.6-76.18c0-29.24-19.22-42.78-42.44-30.41a92.2,92.2,0,0,0-41.1,75.52Zm-1.17,239.25c0,29.07,19.22,42.78,42.44,30.41a91.71,91.71,0,0,0,41.6-75.52c0-29.24-19.21-42.77-42.44-30.41a91.76,91.76,0,0,0-42.27,74.85Zm-89.22-73.85c0,29.08,19.22,42.78,42.61,30.41a92.05,92.05,0,0,0,41.6-75.52c0-29.24-19.22-42.77-42.44-30.41a92.25,92.25,0,0,0-42.44,74.86Zm-93.73-70.84c0,29.07,19.21,42.77,42.44,30.41a92.24,92.24,0,0,0,41.1-75.52c0-29.24-19.38-42.77-42.61-30.41A91.76,91.76,0,0,0,843.63,1549.62Zm-1.34,239.26c0,29.24,19.22,42.77,42.44,30.41a91.9,91.9,0,0,0,42.44-75.52c0-29.24-19.21-42.77-42.61-30.41A92.06,92.06,0,0,0,842.29,1788.88ZM597,1516.21a106.63,106.63,0,0,0,43.61,79c23.72,15,42.77,3.84,42.44-25.07a106.42,106.42,0,0,0-43.78-79.69C615.57,1475.94,596.52,1487.13,597,1516.21ZM503,1571.68a107.24,107.24,0,0,0,43.77,79.86c23.73,15,42.77,3.84,42.44-25.23a107.27,107.27,0,0,0-43.78-79.69C521.67,1531.58,502.62,1542.77,503,1571.68Zm-93.74,55.63A105.94,105.94,0,0,0,453,1707c23.72,15.21,42.6,3.84,42.27-25.06a106.3,106.3,0,0,0-43.61-79.7C427.6,1587.22,409.22,1598.41,409.22,1627.31Zm0,0A105.94,105.94,0,0,0,453,1707c23.72,15.21,42.6,3.84,42.27-25.06a106.3,106.3,0,0,0-43.61-79.7C427.6,1587.22,409.22,1598.41,409.22,1627.31Zm93.9-55.63a107.29,107.29,0,0,0,43.78,79.86c23.72,15,42.77,3.84,42.44-25.23a107.27,107.27,0,0,0-43.78-79.69c-23.89-15-42.94-3.85-42.6,25.06Zm94.07-55.47a106.58,106.58,0,0,0,43.44,79c23.72,15,42.77,3.84,42.44-25.07a106.42,106.42,0,0,0-43.78-79.69c-23.72-14.54-42.77-3.35-42.27,25.73Zm245.1,272.67c0,29.24,19.22,42.77,42.44,30.41a91.9,91.9,0,0,0,42.44-75.52c0-29.24-19.21-42.77-42.61-30.41A92.06,92.06,0,0,0,842.29,1788.88Zm1.34-239.26c0,29.07,19.21,42.77,42.44,30.41a92.24,92.24,0,0,0,41.1-75.52c0-29.24-19.38-42.77-42.61-30.41A91.76,91.76,0,0,0,843.63,1549.62Zm93.06,70.18c0,29.07,19.22,42.77,42.61,30.4a92,92,0,0,0,41.6-75.52c0-29.23-19.21-42.77-42.44-30.4A92.21,92.21,0,0,0,936.69,1619.8Zm89.22,73.84c0,29.08,19.22,42.78,42.44,30.41a91.71,91.71,0,0,0,41.6-75.52c0-29.24-19.21-42.77-42.43-30.41A91.75,91.75,0,0,0,1025.91,1693.64Zm1.51-239.25c0,29.07,19.38,42.77,42.6,30.41a92.1,92.1,0,0,0,40.94-75.52c0-29.24-19.22-42.78-42.44-30.41A92.2,92.2,0,0,0,1027.42,1454.39Z"/><path class="cls-1" d="M710,1266.26a144.5,144.5,0,0,0,108.93,0c35.26-16.71,35.26-42.94,0-59.32a144.5,144.5,0,0,0-108.93,0C675.38,1223.32,675.38,1249.72,710,1266.26Z"/><path class="cls-1" d="M208.73,1500c-.19,307.09,248.61,556.19,555.7,556.37h.67c307.09.19,556.19-248.61,556.38-555.7V1500c.18-307.09-248.62-556.19-555.71-556.37h-.67c-307.09-.19-556.19,248.61-556.37,555.7Zm959,213.19L783.48,1935.07V1490.14l384.28-219.87ZM765.1,1460.07,380.82,1237.52l384.28-161.4,387,162.57Zm-16.71,476L362.44,1713.19v-445.1l386.12,223.22Z"/></g></g></svg>