<?xml version="1.0" encoding="utf-8"?>
<!-- Generator: Adobe Illustrator 16.0.0, SVG Export Plug-In . SVG Version: 6.00 Build 0)  -->
<!DOCTYPE svg PUBLIC "-//W3C//DTD SVG 1.1//EN" "http://www.w3.org/Graphics/SVG/1.1/DTD/svg11.dtd">
<svg version="1.1" id="Layer_1" xmlns="http://www.w3.org/2000/svg" xmlns:xlink="http://www.w3.org/1999/xlink" x="0px" y="0px"
	 width="502.421px" height="85.583px" viewBox="0 0 502.421 85.583" enable-background="new 0 0 502.421 85.583"
	 xml:space="preserve">
<g>
	<g>
		<path fill="#BA141A" d="M48.237,75.083c-4.857-5.322-4.304-11.854-4.282-12.135l0.102-1.152l1.136,0.301
			c0.103,0.025,11.647,3.059,17.376-2.063c5.54-4.966,7.585-16.519,0.461-28.168C56.262,20.783,39.955,9.26,36.762,7.061
			c-3.193,2.2-19.501,13.722-26.269,24.806c-7.122,11.649-5.08,23.203,0.461,28.168c5.729,5.121,17.272,2.088,17.377,2.063
			l1.136-0.301l0.102,1.152c0.022,0.281,0.573,6.813-4.283,12.135c-3.995,4.361-10.349,6.588-18.905,6.588v3.912
			c9.709,0,17.035-2.652,21.795-7.861c5.651-6.186,5.44-12.463,5.349-15.1c-0.09-2.633-0.604-5.791-0.604-5.791l-5.595,1.486
			c-2.477,0.648-10.336,1.844-13.76-1.211C9.208,53.21,7.818,43.75,13.822,33.915c5.399-8.833,17.51-18.146,22.939-22.049
			c5.427,3.904,17.541,13.216,22.94,22.049c6.001,9.834,4.612,19.295,0.256,23.192c-3.423,3.055-11.285,1.859-13.761,1.211
			l-5.591-1.486c0,0-0.518,3.158-0.608,5.791c-0.092,2.637-0.301,8.914,5.35,15.1c4.76,5.209,12.085,7.861,21.795,7.861v-3.912
			C58.588,81.671,52.231,79.445,48.237,75.083z"/>
		<path fill="#BA141A" d="M66.489,64.412c7.492-6.709,10.437-21.091,1.571-35.607C59.889,15.439,40.298,2.352,39.467,1.798L36.762,0
			l-2.708,1.798C33.227,2.352,13.631,15.439,5.461,28.805C-3.402,43.32-0.456,57.703,7.035,64.412
			c4.465,3.994,10.626,4.68,15.453,4.467c-0.404,0.787-0.94,1.578-1.646,2.328c-2.826,3.037-7.696,4.584-14.462,4.584v3.916
			c7.962,0,13.84-1.992,17.429-5.93c3.155-3.441,3.733-7.545,3.807-9.5c-3.322,0.691-12.57,2.039-17.964-2.789
			C3.368,55.867,1.058,43.537,8.81,30.852C16.526,18.212,35.427,5.599,36.224,5.061l0.538-0.356L37.3,5.061
			c0.798,0.539,19.697,13.152,27.413,25.791c7.752,12.685,5.444,25.015-0.842,30.636c-5.393,4.828-14.643,3.48-17.965,2.789
			c0.074,1.955,0.653,6.059,3.807,9.5c3.589,3.938,9.468,5.93,17.43,5.93v-3.916c-6.766,0-11.637-1.547-14.462-4.584
			c-0.705-0.75-1.242-1.541-1.646-2.328C55.86,69.091,62.022,68.406,66.489,64.412z"/>
	</g>
	<path fill="#BD9A61" d="M112.859,41.631c-3.921-2.931-6.46-4.867-7.584-5.819c-0.659-0.611-1.393-1.429-2.215-2.423
		c-0.835-1.005-1.257-2.333-1.257-3.996c0-2.139,0.628-3.825,1.895-5.098c1.274-1.257,2.991-1.901,5.177-1.901
		c4.672,0,7.438,2.795,8.295,8.384h1.706v-8.384c0-0.385-0.084-0.657-0.261-0.781c-0.913-1.002-3.938-1.499-9.089-1.499
		c-3.832,0-7.095,0.924-9.753,2.741c-3.049,2.102-4.578,4.986-4.578,8.645c0,2.186,0.581,4.062,1.741,5.614
		c1.149,1.544,3.275,3.416,6.371,5.594c4.851,3.405,8.06,6.027,9.629,7.865c1.563,1.834,2.345,3.902,2.345,6.23
		c0,2.455-0.823,4.463-2.486,6.092c-1.653,1.609-3.748,2.416-6.283,2.416c-3.605,0-6.406-1.439-8.373-4.34
		c-0.794-1.172-1.414-3.188-1.895-5.994h-1.652v9.227c0,0.703,0.255,1.16,0.729,1.377c0.877,0.441,2.438,0.865,4.685,1.275
		c2.248,0.408,4.262,0.613,6.056,0.613c4.795,0,8.664-1.164,11.606-3.527c2.949-2.363,4.428-5.451,4.428-9.291
		c0-2.403-0.662-4.54-1.966-6.405C118.816,46.5,116.395,44.296,112.859,41.631z"/>
	<path fill="#BD9A61" d="M146.949,33.205c-4.619,0-8.374,1.777-11.258,5.353v-5.353c-2.83,1.595-6.537,2.518-11.127,2.729v1.642
		h1.506c1.402,0,2.361,0.201,2.925,0.586c0.533,0.396,0.817,1.273,0.817,2.617v34.023c0,2.838-0.236,4.553-0.729,5.141
		c-0.484,0.586-1.977,1.059-4.52,1.404v1.693h17.86v-1.693c-3.299-0.305-5.246-0.754-5.839-1.297
		c-0.598-0.576-0.895-2.332-0.895-5.248v-8.836c2.529,1.008,5.004,1.504,7.397,1.504c4.979,0,9.094-1.762,12.368-5.297
		c3.274-3.529,4.902-8.055,4.902-13.53c0-4.713-1.226-8.468-3.659-11.263C154.261,34.592,151.017,33.205,146.949,33.205z
		 M151.028,61.326c-1.889,2.664-4.536,3.986-7.939,3.986c-2.611,0-5.075-1.008-7.397-3.08V50.698c0-3.5,0.178-6.04,0.533-7.609
		c1.001-4.501,3.601-6.751,7.787-6.751c3.044,0,5.454,1.202,7.223,3.629c1.766,2.417,2.654,5.757,2.654,10.003
		C153.889,54.873,152.947,58.65,151.028,61.326z"/>
	<path fill="#BD9A61" d="M190.334,63.091c-0.883,0-1.476-0.35-1.813-1.074c-0.324-0.725-0.491-2-0.491-3.842V43.662
		c0-3.659-0.858-6.335-2.611-7.981c-1.746-1.664-4.548-2.476-8.378-2.476c-3.085,0-5.88,0.557-8.361,1.688
		c-0.924,0.392-1.486,1.031-1.706,1.884l-0.982,3.677c-0.077,0.312,0.09,0.533,0.521,0.657l2.031,0.52
		c0.178,0.042,0.35,0.071,0.533,0.071c0.338,0,0.799-0.526,1.361-1.581c1.705-3.186,3.725-4.768,6.094-4.768
		c3.688,0,5.571,3.169,5.614,9.521l-7.123,2.755c-2.88,1.084-4.98,2.025-6.289,2.807c-3.311,1.954-4.963,4.677-4.963,8.148
		c0,2.629,0.775,4.742,2.351,6.379c1.563,1.631,3.619,2.449,6.152,2.449c1.393,0,2.984-0.604,4.768-1.813l5.027-3.357
		c0.101,1.84,0.615,3.559,1.587,5.17l9.301-2.951l-0.414-1.816C191.595,62.939,190.855,63.091,190.334,63.091z M182.146,52.468
		c0,7.266-2.37,10.889-7.123,10.889c-1.617,0-2.915-0.504-3.904-1.531c-0.97-1.027-1.461-2.369-1.461-4.006
		c0-3.605,2.226-6.342,6.673-8.212c1.475-0.616,3.417-1.351,5.815-2.226V52.468z"/>
	<path fill="#BD9A61" d="M228.277,63.091c-1.575,0-2.356-1.641-2.356-4.916V18.467c-3.541,1.321-7.247,1.961-11.126,1.961v1.763
		h1.765c1.267,0,2.167,0.202,2.683,0.599c0.527,0.391,0.775,1.434,0.775,3.144v8.314c-2.222-0.706-4.589-1.043-7.105-1.043
		c-5.252,0-9.486,1.587-12.73,4.78c-3.264,3.208-4.886,7.382-4.886,12.516c0,4.791,1.409,8.805,4.222,12.037
		c2.818,3.244,6.276,4.875,10.375,4.875c1.568,0,3.486-0.664,5.749-2.006l4.376-2.578v0.443c0.1,1.672,0.574,3.043,1.445,4.141
		l9.426-2.951l-0.457-1.816C229.461,62.939,228.764,63.091,228.277,63.091z M220.018,55.458c0,2.611-0.367,4.342-1.131,5.186
		c-0.771,0.846-1.753,1.57-2.986,2.186c-1.337,0.652-2.616,0.984-3.788,0.984c-3.37,0-6.005-1.766-7.917-5.289
		c-1.604-2.92-2.422-6.205-2.422-9.863c0-3.561,0.83-6.592,2.493-9.067c1.918-2.83,4.553-4.24,7.923-4.24
		c3.387,0,6.005,1.333,7.828,3.985V55.458z"/>
	<path fill="#BD9A61" d="M259.879,41.567c-1.705-5.59-5.537-8.362-11.523-8.362c-4.488,0-8.081,1.522-10.787,4.572
		c-2.932,3.268-4.383,7.265-4.383,11.966c0,4.892,1.476,9.148,4.446,12.754c2.748,3.316,7,4.973,12.755,4.973h1.7l8.51-4.051
		l-0.984-1.969c-2.966,1.488-5.482,2.238-7.592,2.238c-2.35,0-4.387-0.508-6.092-1.516c-4.181-2.352-6.306-6.881-6.408-13.602
		h21.076C260.638,45.647,260.4,43.313,259.879,41.567z M250.784,46.214h-11.264c0.185-1.959,0.422-3.476,0.723-4.512
		c1.263-4.233,3.813-6.348,7.663-6.348c2.043,0,3.742,0.675,5.069,2.025c1.331,1.355,1.988,3.032,1.988,5.028
		C254.964,44.949,253.579,46.214,250.784,46.214z"/>
	<path fill="#BD9A61" d="M296.39,34.017l-0.728-0.812c-2.795,0.64-5.915,0.96-9.367,0.96c-0.593,0-1.167-0.012-1.682-0.053
		c-1.789-0.615-3.701-0.907-5.773-0.907c-3.866,0-7.042,1.007-9.48,3.032c-2.44,2.031-3.664,4.695-3.664,8.018
		c0,4.713,2.486,8.178,7.454,10.396l-6.266,5.17c0,0.084,0,0.266,0,0.521c-0.048,0.26-0.077,0.455-0.077,0.586
		c0,1.967,1.416,3.275,4.258,3.939l-6.869,3.709c-0.533,0.316-0.792,1.098-0.792,2.357c0,2.672,0.702,4.916,2.095,6.752
		c1.221,1.604,3.026,2.906,5.39,3.891c2.386,0.988,4.942,1.463,7.696,1.463c4.24,0,7.698-0.996,10.404-2.99
		c3.452-2.506,5.182-5.619,5.182-9.309c0-3.656-1.729-6.252-5.182-7.803c-1.569-0.707-3.985-1.287-7.266-1.762
		c-3.393-0.49-5.727-0.959-6.999-1.443c-0.87-0.338-1.304-0.865-1.304-1.559c0-0.785,0.599-1.656,1.824-2.605
		c1.227,0,2.072,0,2.564,0c3.654,0,6.703-1.071,9.144-3.209c2.457-2.138,3.688-4.801,3.688-7.975c0-2.972-0.947-5.496-2.83-7.609
		h6.732L296.39,34.017z M274.008,65.376l6.417,1.129c1.517,0.256,2.851,0.559,3.986,0.916c3.049,0.922,4.577,2.846,4.577,5.781
		c0,2.232-0.942,4.076-2.801,5.533c-1.889,1.436-4.281,2.152-7.205,2.152c-2.968,0-5.42-0.785-7.367-2.332
		c-1.936-1.551-2.913-3.545-2.913-5.949c0-1.488,0.373-2.73,1.119-3.744C270.579,67.851,271.946,66.703,274.008,65.376z
		 M278.982,53.747c-2.008,0-3.66-1.013-4.945-2.99c-1.29-1.983-1.931-4.471-1.931-7.483c0-2.63,0.569-4.66,1.706-6.147
		c1.135-1.486,2.7-2.232,4.713-2.232c1.877,0,3.339,0.894,4.412,2.683c1.071,1.781,1.61,4.281,1.61,7.466
		C284.548,50.839,282.688,53.747,278.982,53.747z"/>
	<path fill="#BD9A61" d="M322.953,63.091c-0.875,0-1.48-0.35-1.813-1.074c-0.32-0.725-0.49-2-0.49-3.842V43.662
		c0-3.659-0.866-6.335-2.607-7.981c-1.757-1.664-4.535-2.476-8.384-2.476c-3.091,0-5.886,0.557-8.384,1.688
		c-0.894,0.392-1.463,1.031-1.688,1.884l-0.978,3.677c-0.076,0.312,0.09,0.533,0.516,0.657l2.038,0.52
		c0.17,0.042,0.343,0.071,0.521,0.071c0.349,0,0.805-0.526,1.373-1.581c1.694-3.186,3.725-4.768,6.082-4.768
		c3.712,0,5.583,3.169,5.632,9.521l-7.142,2.755c-2.878,1.084-4.962,2.025-6.283,2.807c-3.31,1.954-4.956,4.677-4.956,8.148
		c0,2.629,0.769,4.742,2.346,6.379c1.575,1.631,3.623,2.449,6.14,2.449c1.408,0,3.002-0.604,4.784-1.813l5.027-3.357
		c0.107,1.84,0.64,3.559,1.587,5.17l9.279-2.951l-0.38-1.816C324.22,62.939,323.463,63.091,322.953,63.091z M314.771,52.468
		c0,7.266-2.382,10.889-7.142,10.889c-1.604,0-2.901-0.504-3.891-1.531c-0.973-1.027-1.463-2.369-1.463-4.006
		c0-3.605,2.228-6.342,6.669-8.212c1.485-0.616,3.427-1.351,5.826-2.226V52.468z"/>
	<path fill="#BD9A61" d="M380.122,58.503V44.835c0-2.315-0.129-4.069-0.39-5.299c-0.96-4.222-3.932-6.331-8.9-6.331
		c-4.446,0-8.396,1.901-11.83,5.746c-0.972-2.139-2.061-3.631-3.311-4.483c-1.248-0.854-2.996-1.263-5.27-1.263
		c-4.797,0-8.775,1.901-11.908,5.746v-5.746c-2.919,1.647-6.619,2.582-11.12,2.801v1.635h1.492c1.444,0,2.429,0.213,2.954,0.628
		c0.527,0.403,0.789,1.268,0.789,2.576v17.659c0,2.928-0.226,4.678-0.693,5.232c-0.462,0.574-1.961,0.984-4.542,1.25v1.717h16.419
		v-1.717c-2.61-0.266-4.144-0.676-4.604-1.25c-0.464-0.555-0.694-2.305-0.694-5.232v-7.64c0-5.763,0.793-9.582,2.369-11.446
		c1.421-1.753,3.499-2.641,6.205-2.641c2.397,0,4.049,0.739,4.974,2.173c0.913,1.443,1.356,3.972,1.356,7.596v11.957
		c0,2.928-0.214,4.678-0.67,5.232c-0.461,0.574-1.983,0.984-4.541,1.25v1.717h16.409v-1.717c-2.611-0.266-4.152-0.676-4.603-1.25
		c-0.462-0.555-0.704-2.305-0.704-5.232v-7.64c0-2.837,0.076-4.802,0.208-5.899c0.301-2.255,0.981-4.078,2.036-5.428
		c1.433-1.843,3.516-2.759,6.265-2.759c2.362,0,4.021,0.75,4.98,2.208c0.958,1.45,1.443,3.979,1.443,7.561v11.957
		c0,2.928-0.237,4.678-0.691,5.232c-0.462,0.574-1.978,0.984-4.542,1.25v1.717h16.354v-1.717c-2.616-0.266-4.15-0.658-4.578-1.215
		C380.342,63.228,380.122,61.478,380.122,58.503z"/>
	<path fill="#BD9A61" d="M394.913,28.871c1.097,0,2.009-0.355,2.742-1.078c0.746-0.715,1.119-1.622,1.119-2.706
		c0-1.048-0.391-1.947-1.143-2.694c-0.763-0.735-1.658-1.107-2.647-1.107c-1.053,0-1.958,0.372-2.717,1.107
		c-0.77,0.747-1.144,1.617-1.144,2.611c0,1.089,0.368,2.013,1.108,2.766C392.966,28.516,393.866,28.871,394.913,28.871z"/>
	<path fill="#BD9A61" d="M399.111,63.371c-0.443-0.617-0.656-2.346-0.656-5.189V32.886c-2.919,1.647-6.633,2.582-11.12,2.801v1.635
		h1.493c1.443,0,2.427,0.189,2.96,0.591c0.521,0.391,0.777,1.256,0.777,2.612v17.656c0,2.932-0.232,4.678-0.688,5.234
		c-0.462,0.574-1.972,0.984-4.542,1.248v1.719h16.35v-1.719C401.073,64.4,399.539,63.984,399.111,63.371z"/>
	<path fill="#BD9A61" d="M440.462,63.292c-0.393-0.469-0.594-2.18-0.594-5.111V44.386c0-2.837-0.2-4.815-0.591-5.946
		c-1.303-3.713-4.341-5.554-9.096-5.554c-5.192,0-9.55,1.89-13.086,5.686v-5.686c-2.836,1.593-6.544,2.518-11.114,2.731v1.639h1.51
		c1.386,0,2.351,0.202,2.901,0.585c0.557,0.397,0.811,1.274,0.811,2.618v17.722c0,2.795-0.23,4.494-0.722,5.086
		c-0.474,0.58-1.977,1.049-4.5,1.396v1.719H422.4v-1.719c-2.617-0.348-4.155-0.803-4.612-1.371
		c-0.448-0.564-0.692-2.268-0.692-5.111v-8.04c0-2.919,0.171-5.157,0.533-6.738c1.036-4.66,4.032-7,8.952-7
		c2.749,0,4.672,0.728,5.761,2.168c1.097,1.439,1.641,3.949,1.641,7.514v12.096c0,2.795-0.177,4.465-0.527,4.98
		c-0.479,0.74-2.047,1.238-4.706,1.502v1.719h16.354v-1.719C442.438,64.4,440.894,63.947,440.462,63.292z"/>
	<path fill="#BD9A61" d="M480.371,33.698l-0.734-0.812c-2.783,0.64-5.899,0.959-9.35,0.959c-0.599,0-1.173-0.011-1.688-0.053
		c-1.801-0.617-3.713-0.907-5.775-0.907c-3.871,0-7.032,1.007-9.474,3.032c-2.45,2.031-3.664,4.695-3.664,8.018
		c0,4.712,2.482,8.177,7.454,10.397l-6.281,5.169c0,0.084,0,0.268,0,0.521c-0.048,0.262-0.072,0.457-0.072,0.586
		c0,1.967,1.435,3.275,4.257,3.939l-6.867,3.713c-0.528,0.313-0.782,1.096-0.782,2.354c0,2.672,0.692,4.916,2.09,6.752
		c1.221,1.605,3.015,2.908,5.396,3.891c2.381,0.988,4.938,1.463,7.681,1.463c4.238,0,7.714-0.994,10.42-2.992
		c3.435-2.504,5.171-5.617,5.171-9.309c0-3.65-1.736-6.252-5.171-7.803c-1.586-0.705-4.004-1.285-7.271-1.758
		c-3.397-0.492-5.731-0.959-6.999-1.443c-0.876-0.338-1.319-0.865-1.319-1.561c0-0.787,0.628-1.656,1.847-2.604
		c1.213,0,2.073,0,2.54,0c3.66,0,6.728-1.072,9.165-3.209c2.441-2.139,3.665-4.804,3.665-7.977c0-2.973-0.939-5.494-2.811-7.609
		h6.727L480.371,33.698z M457.982,65.058l6.419,1.129c1.527,0.254,2.849,0.555,3.997,0.914c3.048,0.922,4.582,2.848,4.582,5.781
		c0,2.234-0.941,4.076-2.824,5.533c-1.884,1.439-4.271,2.156-7.195,2.156c-2.959,0-5.424-0.791-7.353-2.336
		c-1.949-1.551-2.92-3.545-2.92-5.949c0-1.488,0.374-2.729,1.113-3.742C454.542,67.533,455.94,66.382,457.982,65.058z
		 M462.961,53.427c-2.001,0-3.646-1.013-4.942-2.99c-1.285-1.983-1.931-4.471-1.931-7.485c0-2.629,0.563-4.66,1.71-6.146
		c1.131-1.487,2.713-2.233,4.701-2.233c1.884,0,3.353,0.894,4.419,2.683c1.064,1.782,1.598,4.281,1.598,7.466
		C468.516,50.519,466.669,53.427,462.961,53.427z"/>
	<path fill="#BA141A" d="M66.419,64.425c7.487-6.703,10.431-21.08,1.567-35.584c-8.171-13.357-27.739-26.438-28.57-26.99
		l-2.703-1.799l-2.706,1.799c-0.829,0.553-20.411,13.633-28.574,26.99c-8.86,14.504-5.919,28.881,1.57,35.584
		c4.462,3.99,10.622,4.68,15.444,4.465c-0.403,0.783-0.938,1.574-1.645,2.324c-2.825,3.033-7.693,4.58-14.452,4.58v3.912
		c7.955,0,13.83-1.988,17.416-5.926c3.151-3.438,3.731-7.537,3.805-9.492c-3.319,0.691-12.565,2.039-17.953-2.787
		c-6.281-5.613-8.589-17.94-0.838-30.616C16.488,18.252,35.377,5.65,36.174,5.11l0.539-0.357l0.544,0.357
		c0.798,0.54,19.664,13.142,27.386,25.775c7.753,12.676,5.443,25.003-0.84,30.616c-5.389,4.826-14.628,3.479-17.959,2.787
		c0.081,1.955,0.66,6.055,3.809,9.492c3.601,3.938,9.462,5.926,17.417,5.926v-3.912c-6.757,0-11.628-1.547-14.459-4.58
		c-0.709-0.75-1.232-1.541-1.623-2.324C55.785,69.105,61.956,68.416,66.419,64.425z"/>
	<g>
		<path fill="#BD9A61" d="M486.983,36.415h-3.041v-1.201h7.363v1.201h-3.042v8.245h-1.28V36.415z"/>
		<path fill="#BD9A61" d="M492.576,35.214h1.907l3.003,7.151h0.053l2.975-7.151h1.907v9.446h-1.281v-7.764h-0.025l-3.189,7.764
			h-0.854l-3.188-7.764h-0.025v7.764h-1.281V35.214z"/>
	</g>
</g>
</svg>
