<svg xmlns="http://www.w3.org/2000/svg" width="40" height="41" viewBox="0 0 40 41" fill="none">
  <rect y="0.62793" width="40" height="40" rx="20" fill="#F7931A"/>
  <path d="M28.8307 18.1076C29.2579 15.5387 27.2972 14.1091 24.6015 13.1325L25.5369 9.65884L23.4196 9.08876L22.5122 12.4683L20.7753 12.0482L21.6883 8.64771L19.571 8.07764L18.6409 11.5514C18.175 11.4365 17.7196 11.3218 17.275 11.2021L14.3266 10.4096L13.7235 12.6644C13.7235 12.6644 15.3119 13.0604 15.2744 13.0807C15.5712 13.1212 15.8406 13.2759 16.0241 13.5112C16.2076 13.7464 16.2903 14.0433 16.2544 14.3373L13.7014 23.8482C13.6719 23.9471 13.6226 24.0389 13.5563 24.1183C13.4901 24.1977 13.4082 24.2629 13.3157 24.3101C13.2232 24.3573 13.1219 24.3855 13.0179 24.3929C12.9139 24.4004 12.8093 24.3871 12.7104 24.3536C12.7099 24.3852 11.1541 23.9373 11.1541 23.9373L10.0543 26.3501L12.8386 27.0971C13.368 27.2344 13.86 27.3814 14.3575 27.518L13.4163 31.0283L15.5336 31.5984L16.469 28.1248C17.051 28.2947 17.6174 28.4485 18.1679 28.5967L17.2381 32.0547L19.3554 32.6248L20.3018 29.1198C23.947 29.8794 26.7088 29.6633 27.9119 26.4109C28.8872 23.8008 27.9329 22.2501 26.0193 21.2161C27.427 20.9244 28.4983 20.0313 28.8087 18.1544L28.8307 18.1076ZM23.8225 24.8108C23.1181 27.4265 18.6553 25.9186 17.205 25.5255L18.4506 20.8746C19.901 21.2625 24.5555 22.0536 23.8225 24.8108ZM24.5911 17.9879C23.9486 20.3787 20.232 19.0809 19.0251 18.756L20.1527 14.5341C21.365 14.8486 25.2618 15.4872 24.5912 17.9774L24.5911 17.9879Z" fill="white"/>
</svg>