<svg xmlns="http://www.w3.org/2000/svg" width="40" height="41" viewBox="0 0 40 41" fill="none">
  <rect y="0.62793" width="40" height="40" rx="20" fill="white"/>
  <path d="M29.5674 9.27783H33.4752L25.3449 17.4436C23.9228 18.8646 22.0067 19.6612 20.0103 19.6612C18.014 19.6612 16.0978 18.8646 14.6758 17.4436L6.54019 9.27783H10.4375L16.6166 15.4806C17.5158 16.3808 18.7285 16.8856 19.992 16.8856C21.2555 16.8856 22.4682 16.3808 23.3674 15.4806L29.5674 9.27783Z" fill="#23292F"/>
  <path d="M10.3998 31.9826H6.48676L14.6696 23.7689C16.0916 22.3479 18.0078 21.5514 20.0041 21.5514C22.0004 21.5514 23.9166 22.3479 25.3386 23.7689L33.5162 31.9826H29.6084L23.3821 25.7159C22.4829 24.8157 21.2702 24.311 20.0067 24.311C18.7432 24.311 17.5305 24.8157 16.6313 25.7159L10.3998 31.9826Z" fill="#23292F"/>
</svg>